<?xml version="1.0" encoding="UTF-8"?>
<!DOCTYPE svg PUBLIC "-//W3C//DTD SVG 1.1//EN" "http://www.w3.org/Graphics/SVG/1.1/DTD/svg11.dtd">
<svg xmlns="http://www.w3.org/2000/svg" version="1.1" width="104px" height="93px" style="shape-rendering:geometricPrecision; text-rendering:geometricPrecision; image-rendering:optimizeQuality; fill-rule:evenodd; clip-rule:evenodd" xmlns:xlink="http://www.w3.org/1999/xlink">
<g><path style="opacity:0.49" fill="#3e5743" d="M 84.5,7.5 C 86.7089,6.02421 88.0423,6.69087 88.5,9.5C 87.3951,8.39952 86.0618,7.73286 84.5,7.5 Z"/></g>
<g><path style="opacity:1" fill="#759e9a" d="M 84.5,7.5 C 83.0256,9.97944 82.0256,12.6461 81.5,15.5C 79.6231,14.3409 79.1231,12.6742 80,10.5C 81.6147,9.61381 83.1147,8.61381 84.5,7.5 Z"/></g>
<g><path style="opacity:0.494" fill="#4d5851" d="M 88.5,9.5 C 93.4556,14.008 96.1223,19.6747 96.5,26.5C 94.6078,20.5005 91.9411,14.8338 88.5,9.5 Z"/></g>
<g><path style="opacity:1" fill="#7ba5ac" d="M 81.5,15.5 C 83.1132,15.9443 84.2798,16.9443 85,18.5C 85.9533,21.4318 86.4533,24.4318 86.5,27.5C 84.8551,23.537 83.1884,19.537 81.5,15.5 Z"/></g>
<g><path style="opacity:1" fill="#677c78" d="M 56.5,27.5 C 52.0141,20.5982 45.6808,18.0982 37.5,20C 28.5361,23.421 24.8694,29.921 26.5,39.5C 23.4922,26.4661 28.8255,19.1328 42.5,17.5C 49.7154,17.4279 54.3821,20.7612 56.5,27.5 Z"/></g>
<g><path style="opacity:1" fill="#95e1f4" d="M 75.5,23.5 C 75.427,25.0269 76.0937,26.0269 77.5,26.5C 77.5,26.8333 77.5,27.1667 77.5,27.5C 77.5,32.5 77.5,37.5 77.5,42.5C 76.2921,43.2341 74.9587,43.5674 73.5,43.5C 73.5,44.5 73.5,45.5 73.5,46.5C 69.9452,45.9464 67.6118,43.9464 66.5,40.5C 67.1174,40.3893 67.6174,40.056 68,39.5C 68.1499,34.4277 68.3165,29.4277 68.5,24.5C 69.8333,23.5 71.1667,22.5 72.5,21.5C 73.5178,22.1925 74.5178,22.8592 75.5,23.5 Z"/></g>
<g><path style="opacity:0.722" fill="#555c56" d="M 75.5,23.5 C 76.9063,23.9731 77.573,24.9731 77.5,26.5C 76.0937,26.0269 75.427,25.0269 75.5,23.5 Z"/></g>
<g><path style="opacity:1" fill="#93e2f7" d="M 56.5,27.5 C 56.6741,29.861 57.0074,32.1944 57.5,34.5C 57.9321,37.8774 57.2655,40.8774 55.5,43.5C 53.5544,44.0347 52.5544,45.368 52.5,47.5C 52.1667,47.5 51.8333,47.5 51.5,47.5C 49.847,47.6596 48.5137,48.3263 47.5,49.5C 42.0116,49.7521 36.6782,49.0855 31.5,47.5C 31.2624,45.5956 30.2624,44.2623 28.5,43.5C 28.3404,41.847 27.6737,40.5137 26.5,39.5C 24.8694,29.921 28.5361,23.421 37.5,20C 45.6808,18.0982 52.0141,20.5982 56.5,27.5 Z"/></g>
<g><path style="opacity:0.157" fill="#556766" d="M 56.5,27.5 C 58.534,29.6548 58.8674,31.9882 57.5,34.5C 57.0074,32.1944 56.6741,29.861 56.5,27.5 Z"/></g>
<g><path style="opacity:0.716" fill="#5f7771" d="M 86.5,28.5 C 87.7415,34.7913 87.2415,41.1246 85,47.5C 84.6174,48.056 84.1174,48.3893 83.5,48.5C 85.5327,42.0002 86.5327,35.3335 86.5,28.5 Z"/></g>
<g><path style="opacity:0.51" fill="#5d7577" d="M 75.5,23.5 C 74.5178,22.8592 73.5178,22.1925 72.5,21.5C 71.1667,22.5 69.8333,23.5 68.5,24.5C 68.3165,29.4277 68.1499,34.4277 68,39.5C 67.6174,40.056 67.1174,40.3893 66.5,40.5C 67.4698,35.0442 67.4698,29.7109 66.5,24.5C 68.5,22.8333 70.5,21.1667 72.5,19.5C 74.2882,20.2826 75.2882,21.6159 75.5,23.5 Z"/></g>
<g><path style="opacity:0.922" fill="#6d7d76" d="M 77.5,27.5 C 79.751,32.5451 79.751,37.5451 77.5,42.5C 77.5,37.5 77.5,32.5 77.5,27.5 Z"/></g>
<g><path style="opacity:0.478" fill="#556d68" d="M 26.5,39.5 C 27.6737,40.5137 28.3404,41.847 28.5,43.5C 26.8958,42.713 26.2291,41.3797 26.5,39.5 Z"/></g>
<g><path style="opacity:1" fill="#92daeb" d="M 84.5,7.5 C 86.0618,7.73286 87.3951,8.39952 88.5,9.5C 91.9411,14.8338 94.6078,20.5005 96.5,26.5C 97.1644,29.1459 97.4978,31.9792 97.5,35C 97.6741,39.4422 97.0074,43.6089 95.5,47.5C 93.2295,49.6123 91.8961,52.279 91.5,55.5C 89.7376,56.2623 88.7376,57.5956 88.5,59.5C 87.7354,59.9234 86.9021,60.2568 86,60.5C 84.5936,59.5862 83.0936,58.9195 81.5,58.5C 80.5094,55.7559 80.8427,53.0893 82.5,50.5C 82.3284,49.5084 82.6618,48.8417 83.5,48.5C 84.1174,48.3893 84.6174,48.056 85,47.5C 87.2415,41.1246 87.7415,34.7913 86.5,28.5C 86.5,28.1667 86.5,27.8333 86.5,27.5C 86.4533,24.4318 85.9533,21.4318 85,18.5C 84.2798,16.9443 83.1132,15.9443 81.5,15.5C 82.0256,12.6461 83.0256,9.97944 84.5,7.5 Z"/></g>
<g><path style="opacity:0.173" fill="#586d6b" d="M 28.5,43.5 C 30.2624,44.2623 31.2624,45.5956 31.5,47.5C 29.7376,46.7377 28.7376,45.4044 28.5,43.5 Z"/></g>
<g><path style="opacity:1" fill="#708d8b" d="M 66.5,40.5 C 67.6118,43.9464 69.9452,45.9464 73.5,46.5C 73.5,45.5 73.5,44.5 73.5,43.5C 74.9587,43.5674 76.2921,43.2341 77.5,42.5C 74.7291,50.0334 70.8957,50.3667 66,43.5C 65.2599,42.2506 65.4265,41.2506 66.5,40.5 Z"/></g>
<g><path style="opacity:0.051" fill="#4f5955" d="M 55.5,43.5 C 54.9744,45.2303 53.9744,46.5637 52.5,47.5C 52.5544,45.368 53.5544,44.0347 55.5,43.5 Z"/></g>
<g><path style="opacity:0.686" fill="#5f6e6b" d="M 51.5,47.5 C 50.713,49.1042 49.3797,49.7709 47.5,49.5C 48.5137,48.3263 49.847,47.6596 51.5,47.5 Z"/></g>
<g><path style="opacity:1" fill="#69807c" d="M 31.5,47.5 C 36.6782,49.0855 42.0116,49.7521 47.5,49.5C 41.8581,52.1001 36.5248,51.4334 31.5,47.5 Z"/></g>
<g><path style="opacity:0.478" fill="#57605a" d="M 95.5,47.5 C 95.2064,50.7541 93.873,53.4208 91.5,55.5C 91.8961,52.279 93.2295,49.6123 95.5,47.5 Z"/></g>
<g><path style="opacity:0.686" fill="#668383" d="M 82.5,50.5 C 80.8427,53.0893 80.5094,55.7559 81.5,58.5C 78.8728,55.6228 79.2061,52.9561 82.5,50.5 Z"/></g>
<g><path style="opacity:0.165" fill="#4f5c55" d="M 91.5,55.5 C 91.2624,57.4044 90.2624,58.7377 88.5,59.5C 88.7376,57.5956 89.7376,56.2623 91.5,55.5 Z"/></g>
<g><path style="opacity:0.906" fill="#5d7071" d="M 81.5,58.5 C 83.0936,58.9195 84.5936,59.5862 86,60.5C 86.9021,60.2568 87.7354,59.9234 88.5,59.5C 85.961,63.4554 83.6277,63.1221 81.5,58.5 Z"/></g>
<g><path style="opacity:1" fill="#7ca09f" d="M 31.5,59.5 C 29.1617,61.0395 26.4951,61.7062 23.5,61.5C 25.8383,59.9605 28.5049,59.2938 31.5,59.5 Z"/></g>
<g><path style="opacity:1" fill="#92e3fb" d="M 31.5,59.5 C 43.1132,58.8456 54.1132,60.8456 64.5,65.5C 66.8715,66.8217 68.8715,68.4883 70.5,70.5C 71.327,73.7831 71.6604,77.1165 71.5,80.5C 51.5,80.5 31.5,80.5 11.5,80.5C 11.5,77.5 11.5,74.5 11.5,71.5C 13.1236,68.2099 15.4569,65.5433 18.5,63.5C 20.5529,63.5979 22.2196,62.9313 23.5,61.5C 26.4951,61.7062 29.1617,61.0395 31.5,59.5 Z"/></g>
<g><path style="opacity:0.314" fill="#5d706c" d="M 23.5,61.5 C 22.2196,62.9313 20.5529,63.5979 18.5,63.5C 19.7804,62.0687 21.4471,61.4021 23.5,61.5 Z"/></g>
<g><path style="opacity:0.988" fill="#67837e" d="M 58.5,60.5 C 60.9674,60.7549 62.9674,61.7549 64.5,63.5C 61.911,63.539 59.911,62.539 58.5,60.5 Z"/></g>
<g><path style="opacity:1" fill="#92c5cc" d="M 31.5,59.5 C 40.4657,58.0211 49.4657,58.3544 58.5,60.5C 59.911,62.539 61.911,63.539 64.5,63.5C 73.2213,66.6733 76.2213,72.6733 73.5,81.5C 52.8333,81.5 32.1667,81.5 11.5,81.5C 10.1667,78.1667 10.1667,74.8333 11.5,71.5C 11.5,74.5 11.5,77.5 11.5,80.5C 31.5,80.5 51.5,80.5 71.5,80.5C 71.6604,77.1165 71.327,73.7831 70.5,70.5C 68.8715,68.4883 66.8715,66.8217 64.5,65.5C 54.1132,60.8456 43.1132,58.8456 31.5,59.5 Z"/></g>
<g><path style="opacity:1" fill="#6d7a6e" d="M 11.5,81.5 C 32.1667,81.5 52.8333,81.5 73.5,81.5C 64.2656,82.191 54.9322,82.8577 45.5,83.5C 34.1667,82.8333 22.8333,82.1667 11.5,81.5 Z"/></g>
<g><path style="opacity:0.257" fill="#566157" d="M 18.5,63.5 C 15.4569,65.5433 13.1236,68.2099 11.5,71.5C 10.1667,74.8333 10.1667,78.1667 11.5,81.5C 22.8333,82.1667 34.1667,82.8333 45.5,83.5C 33.8286,83.6665 22.1619,83.4999 10.5,83C 9.64332,82.3109 8.97665,81.4776 8.5,80.5C 9.26182,76.8889 9.76182,73.2222 10,69.5C 12.183,66.4692 15.0164,64.4692 18.5,63.5 Z"/></g>
</svg>
